OpenSim_Sub03_CSStiffKnee_GRF.mot
version=1
nRows=70
nColumns=19
inDegrees=no
endheader
time	lFx	lFy	lFz	lCOPx	lCOPy	lCOPz	rFx	rFy	rFz	rCOPx	rCOPy	rCOPz	lMx	lMy	lMz	rMx	rMy	rMz
27.27000000	-12.83290430	717.43115481	73.53996524	0.63532802	0	-0.67201623	0.13159228	1.54187759	-0.20949196	0.00000034	0	-0.00000028	0	-9.25084815	0	0	-0.00000056	0.00000000
27.28000000	-9.33377345	722.42831822	73.44019118	0.62831785	0	-0.67225695	0.21447187	1.32723181	-0.09902082	0.00000004	0	-0.00000004	0	-9.17184542	0	0	-0.00000045	-0.00000000
27.29000000	-6.06645164	727.63182014	73.38885465	0.62143259	0	-0.67249029	0.27061520	1.07605231	-0.03031378	-0.00000009	0	0.00000006	0	-9.11761820	0	0	-0.00000021	-0.00000000
27.30000000	-3.02906422	732.59729973	73.34329911	0.61455285	0	-0.67265378	0.28561475	0.95242342	-0.03364324	-0.00000014	0	0.00000008	0	-9.05450872	0	0	-0.00000000	0.00000000
27.31000000	-0.11606201	737.07237998	73.39093993	0.60752828	0	-0.67273058	0.30747171	0.99571921	-0.04408113	-0.00000009	0	0.00000005	0	-9.03590646	0	0	0.00000016	0.00000000
27.32000000	2.75164802	741.04734355	73.60071863	0.60032738	0	-0.67277831	0.32779979	1.13081229	0.00368014	0.00000016	0	-0.00000008	0	-9.04185350	0	0	0.00000029	-0.00000000
27.33000000	5.50230343	744.47739071	74.06645194	0.59314078	0	-0.67286499	0.32140453	1.24919447	0.04605581	0.00000074	0	-0.00000037	0	-9.09449892	0	0	0.00000027	-0.00000000
27.34000000	8.28251643	746.98522607	74.68453203	0.58606179	0	-0.67299957	0.28967550	1.33319381	0.08146971	0.00000162	0	-0.00000079	0	-9.19996574	0	0	-0.00000022	0.00000000
27.35000000	11.29562939	748.40976730	75.27406580	0.57898723	0	-0.67313536	0.27844985	1.39706511	0.11727560	0.00000214	0	-0.00000101	0	-9.31931605	0	0	-0.00000165	-0.00000000
27.36000000	14.50508183	748.94650812	75.67647669	0.57194070	0	-0.67320911	0.29864462	1.45179008	0.11535597	0.00000042	0	-0.00000009	0	-9.38190459	0	0	-0.00000419	0.00000000
27.37000000	17.63432266	748.80123974	75.85847345	0.56501726	0	-0.67317107	0.31505130	1.54744363	0.12727669	-0.00000682	0	0.00000355	0	-9.39836702	0	0	-0.00000656	0.00000000
27.38000000	20.61342103	748.11004828	75.83722518	0.55818776	0	-0.67298633	0.27407570	1.70730789	0.15572210	-0.00002246	0	0.00001119	0	-9.42022960	0	0	-0.00000419	0.00000000
27.39000000	23.54286301	747.16688547	75.61731042	0.55130139	0	-0.67269979	0.21046061	1.86937907	0.18152819	-0.00004284	0	0.00002079	0	-9.42187781	0	0	0.00001207	0.00000000
27.40000000	26.44698896	746.22377172	75.28809074	0.54441023	0	-0.67238279	0.16313734	2.01099288	0.19725362	-0.00004587	0	0.00002116	0	-9.38133240	0	0	0.00005279	0.00000000
27.41000000	29.16777687	745.34725565	74.95026449	0.53766385	0	-0.67205176	0.14761287	2.08670900	0.22961057	0.00002211	0	-0.00001412	0	-9.27648931	0	0	0.00011573	0.00000000
27.42000000	31.64895348	744.44374471	74.67168094	0.53103097	0	-0.67170314	0.14605670	2.08969375	0.24950211	0.00024157	0	-0.00012342	0	-9.11921165	0	0	0.00015381	0.00000000
27.43000000	34.05168789	743.28381155	74.42044213	0.52438663	0	-0.67133501	0.17478018	2.04153971	0.26376797	0.00065510	0	-0.00032398	0	-8.90448298	0	0	0.00003166	0.00000000
27.44000000	36.53441935	741.43596266	74.13566467	0.51760177	0	-0.67094983	0.27566815	1.94268277	0.36038980	0.00108786	0	-0.00052302	0	-8.67451886	0	0	-0.00048638	0.00000000
27.45000000	39.07927301	738.55215010	73.77025050	0.51079807	0	-0.67058654	0.43132369	1.79935414	0.38602562	0.00084355	0	-0.00037135	0	-8.46970614	0	0	-0.00160783	0.00000000
27.46000000	41.54094692	734.41701814	73.26654718	0.50398710	0	-0.67023886	0.58434913	1.56512656	0.26926291	-0.00154472	0	0.00084731	0	-8.30429551	0	0	-0.00307381	0.00000000
27.47000000	43.99420697	728.85821307	72.52308733	0.49714720	0	-0.66990171	0.49205898	1.10309852	0.13752697	-0.00792372	0	0.00399994	0	-8.15264988	0	0	-0.00330569	-0.00000000
27.48000000	46.50373749	721.65731800	71.51779725	0.49027323	0	-0.66957992	-0.37956363	0.38696459	0.00113579	-0.01838018	0	0.00902236	0	-7.96462833	0	0	0.00154388	0.00000000
27.49000000	48.98837463	712.52108220	70.30424264	0.48343602	0	-0.66926972	-2.75065655	-0.05697966	-0.16458497	-0.02617665	0	0.01243086	0	-7.71915325	0	0	0.01725731	0.00000000
27.50000000	51.30904491	701.10712666	69.02246369	0.47654258	0	-0.66896372	-6.75011674	1.45839802	-0.44618451	-0.01037532	0	0.00381260	0	-7.46252475	0	0	0.04693352	-0.00000000
27.51000000	53.56918188	686.91120894	67.77320228	0.46948590	0	-0.66867285	-10.94778031	9.28258337	-0.74303086	0.06752207	0	-0.03547416	0	-7.27091838	0	0	0.07812554	0
27.52000000	55.84489432	669.35981354	66.49701573	0.46226952	0	-0.66846044	-12.12648738	32.27365367	-0.55237631	0.24588271	0	-0.12296749	0	-7.10799230	0	0	0.06100899	-0.00000000
27.53000000	58.00697985	648.14669657	65.20006047	0.45505621	0	-0.66836046	-6.80306626	81.90677897	0.73817849	0.49721860	0	-0.24229989	0	-6.95560910	0	0	-0.11087835	0.00000000
27.54000000	59.83473160	622.75829583	63.75223400	0.44783953	0	-0.66834989	2.88399808	163.01401972	2.45685015	0.69228482	0	-0.33091645	0	-6.81634503	0	0	-0.55625550	0
27.55000000	61.31019506	592.29200973	61.74939484	0.44038925	0	-0.66831960	6.64818032	263.16976926	-0.51790377	0.78086408	0	-0.36951258	0	-6.64241531	0	0	-1.01085117	0
27.56000000	62.25402779	555.94838205	58.65913848	0.43271685	0	-0.66814396	-1.23516441	359.01354168	-12.07833368	0.79951682	0	-0.37594703	0	-6.36331461	0	0	-1.07954329	0
27.57000000	61.92490606	513.40202015	54.18116459	0.42500648	0	-0.66774803	-17.30629925	434.36655807	-28.12886252	0.79246988	0	-0.36970397	0	-5.96009414	0	0	-1.17042225	0
27.58000000	59.39064020	465.30501806	48.48727010	0.41770394	0	-0.66709866	-36.58809255	488.01713818	-43.05987384	0.78299001	0	-0.36193394	0	-5.49245500	0	0	-1.70007415	0.00000000
27.59000000	54.32592289	413.22539041	42.11122894	0.41111729	0	-0.66652733	-54.47405451	527.93902374	-54.11068792	0.77730361	0	-0.35657219	0	-5.06961111	0	0	-2.57117037	0
27.60000000	47.14366472	358.92206902	35.71856680	0.40541238	0	-0.66699751	-68.12450327	564.91473174	-61.75909433	0.77423836	0	-0.35363797	0	-4.82327302	0	0	-3.54622470	0
27.61000000	38.46431399	304.08803417	29.93709971	0.40144995	0	-0.66999566	-76.78519809	607.50846336	-68.01747274	0.77160094	0	-0.35213992	0	-4.85863829	0	0	-4.36868156	0
27.62000000	28.83380354	250.25166176	25.18217117	0.40058044	0	-0.67654665	-80.29070126	658.61066723	-73.10185674	0.76837089	0	-0.35123249	0	-5.17811651	0	0	-5.06176191	0
27.63000000	18.99783045	198.44881475	21.45000167	0.40212089	0	-0.68430225	-80.11766650	715.31025356	-76.69497928	0.76454474	0	-0.35042946	0	-5.64008126	0	0	-5.68371924	0
27.64000000	9.95971951	149.55879591	18.50593901	0.39943132	0	-0.68189409	-78.92842128	770.34158278	-79.27819248	0.76053311	0	-0.34948258	0	-6.01986601	0	0	-6.29163684	0.00000000
27.65000000	2.61294868	105.29774538	15.95840611	0.37678358	0	-0.64374306	-77.73390504	815.07951088	-81.65741474	0.75655411	0	-0.34830545	0	-5.92054522	0	0	-6.84788745	0
27.66000000	-1.94035659	67.53847070	13.45730558	0.31336905	0	-0.53401042	-75.69451255	844.51475157	-84.36144832	0.75270867	0	-0.34684802	0	-4.98558787	0	0	-7.30454451	0
27.67000000	-2.67268582	37.74850762	10.56446439	0.20170693	0	-0.34027375	-72.17314525	858.37452513	-87.74031665	0.74897542	0	-0.34514174	0	-3.16809408	0	0	-7.68170802	0
27.68000000	0.34268913	16.63214957	7.01206781	0.08486577	0	-0.14100844	-66.77542441	858.64692344	-91.55634182	0.74506289	0	-0.34332510	0	-1.27372222	0	0	-7.99447833	0.00000000
27.69000000	4.68813131	4.08134301	3.73890020	0.01526629	0	-0.02401320	-59.62072377	848.37610633	-95.01341872	0.74076798	0	-0.34149534	0	-0.19200113	0	0	-8.16480229	0
27.70000000	7.86538712	-1.33688238	1.96985060	-0.01006579	0	0.01781579	-51.35110106	830.79380059	-97.27559603	0.73626852	0	-0.33971534	0	0.18102284	0	0	-8.21747067	0
27.71000000	9.33695895	-2.51568739	1.28736852	-0.01214599	0	0.02070457	-42.70114538	808.32205786	-97.54597884	0.73160943	0	-0.33805664	0	0.19666364	0	0	-8.28016684	0
27.72000000	9.71907935	-2.15742358	1.21334408	-0.00714346	0	0.01200371	-34.18496291	782.81314655	-95.93104612	0.72677926	0	-0.33658655	0	0.11090650	0	0	-8.30082225	0
27.73000000	9.65992395	-1.56821540	1.30889483	-0.00255938	0	0.00422301	-26.01930028	755.82618169	-93.15718636	0.72178763	0	-0.33532174	0	0.03760248	0	0	-8.21176380	0
27.74000000	9.49329480	-1.08858860	1.35521856	-0.00018074	0	0.00024101	-18.12305225	728.91665727	-89.73585110	0.71678431	0	-0.33421592	0	0.00108503	0	0	-8.13962849	0
27.75000000	9.34552966	-0.79312358	1.41152514	0.00052916	0	-0.00091928	-10.63957006	703.65160905	-86.17809117	0.71186666	0	-0.33324135	0	-0.00904129	0	0	-8.08428316	-0.00000000
27.76000000	9.24543412	-0.65301545	1.40586101	0.00047453	0	-0.00080513	-4.00459447	681.44856044	-82.76974069	0.70721806	0	-0.33235216	0	-0.00757964	0	0	-7.95289282	0
27.77000000	9.20656511	-0.57237281	1.39027392	0.00024325	0	-0.00040705	1.25658724	663.00945642	-79.70049813	0.70305613	0	-0.33146849	0	-0.00373002	0	0	-7.80097488	0
27.78000000	9.19156994	-0.52707411	1.34012311	0.00007108	0	-0.00011604	5.07830617	648.19314738	-77.19988769	0.69921642	0	-0.33055964	0	-0.00101005	0	0	-7.67106530	0
27.79000000	9.16172736	-0.48618927	1.30267328	-0.00000681	0	0.00001374	7.65558410	637.32835838	-75.55939843	0.69554476	0	-0.32968201	0	0.00016889	0	0	-7.46958201	-0.00000000
27.80000000	9.13058916	-0.44309070	1.32944018	-0.00002424	0	0.00004169	9.27907619	630.99569818	-74.94799919	0.69205654	0	-0.32888409	0	0.00040262	0	0	-7.22710739	0.00000000
27.81000000	9.10676039	-0.46078396	1.31564991	-0.00001776	0	0.00003000	10.16813482	629.30294498	-75.36359192	0.68858140	0	-0.32817897	0	0.00028024	0	0	-7.03122210	0
27.82000000	9.09597935	-0.49806534	1.30132448	-0.00000793	0	0.00001321	10.64690236	632.05908010	-76.63823217	0.68477832	0	-0.32759818	0	0.00011989	0	0	-6.80222172	0.00000000
27.83000000	9.09264969	-0.51282745	1.25224088	-0.00000172	0	0.00000274	10.78647445	639.11401177	-78.37532103	0.68066520	0	-0.32713448	0	0.00002281	0	0	-6.49373274	0
27.84000000	9.08436349	-0.51617610	1.16666891	0.00000071	0	-0.00000127	10.50701963	650.21808074	-80.20375583	0.67632768	0	-0.32675294	0	-0.00001323	0	0	-6.13644408	0
27.85000000	9.06553669	-0.44877104	1.09435783	0.00000103	0	-0.00000175	9.89790848	664.66875120	-82.01228668	0.67172282	0	-0.32648800	0	-0.00001669	0	0	-5.72615244	0
27.86000000	9.02946595	-0.29868702	1.04020846	0.00000064	0	-0.00000108	9.13636156	681.35875735	-83.80422618	0.66684535	0	-0.32637223	0	-0.00000998	0	0	-5.24830529	0
27.87000000	8.96900230	-0.16757071	1.02910082	0.00000024	0	-0.00000041	8.46549145	699.05771075	-85.53705975	0.66183029	0	-0.32639855	0	-0.00000363	0	0	-4.79633080	0
27.88000000	8.90270446	-0.19405118	1.02411144	0.00000001	0	-0.00000003	8.08767729	716.82560603	-87.30428727	0.65665057	0	-0.32650815	0	-0.00000022	0	0	-4.42308123	0
27.89000000	8.83849422	-0.28759978	1.02573288	-0.00000009	0	0.00000011	8.24043160	734.02697718	-89.09891836	0.65111700	0	-0.32664673	0	0.00000095	0	0	-4.08440483	0
27.90000000	8.77435062	-0.28200316	1.04371248	-0.00000012	0	0.00000014	9.10709425	750.07874216	-90.71573083	0.64526442	0	-0.32682820	0	0.00000103	0	0	-3.79026804	0
27.91000000	8.70506998	-0.21205001	1.04098634	-0.00000009	0	0.00000009	10.68928604	764.40437118	-92.06843907	0.63921563	0	-0.32704436	0	0.00000058	0	0	-3.59041296	0
27.92000000	8.62322988	-0.08064517	1.08264611	0.00000009	0	-0.00000007	12.68420091	776.41831239	-93.28103159	0.63297807	0	-0.32726956	0	-0.00000057	0	0	-3.42016096	-0.00000000
27.93000000	8.51848672	-0.01688826	1.14496479	0.00000056	0	-0.00000046	14.72432652	785.89095727	-94.26201283	0.62676455	0	-0.32745116	0	-0.00000296	0	0	-3.26822712	0.00000000
27.94000000	8.43253942	-0.10328434	1.14887377	0.00000132	0	-0.00000111	16.68905243	792.79441866	-94.89989870	0.62073467	0	-0.32760681	0	-0.00000654	0	0	-3.13113307	0
27.95000000	8.38328860	-0.26657844	1.12883097	0.00000191	0	-0.00000163	18.89515012	797.21469224	-95.24179369	0.61461385	0	-0.32777167	0	-0.00000873	0	0	-2.98013438	0.00000000
27.96000000	8.35273004	-0.38559573	1.13426400	0.00000087	0	-0.00000080	21.42502153	799.27869544	-95.46653689	0.60821930	0	-0.32795361	0	-0.00000195	0	0	-2.75897111	0.00000000
